<svg width="1561" height="328" viewBox="0 0 1561 328" fill="none" xmlns="http://www.w3.org/2000/svg">
<g clip-path="url(#clip0_302_5)">
<path d="M63.5 1.5H325V66L130 329.5H63.5L-1 261L63.5 192.5V259.5H107L256.5 66H-1L63.5 1.5Z" fill="white"/>
<path d="M325 66V1.5H63.5L-1 66H256.5M325 66L130 329.5M325 66H256.5M130 329.5H63.5L-1 261M130 329.5L107 259.5M-1 261L63.5 192.5V259.5M-1 261L63.5 259.5M63.5 259.5H107M256.5 66L107 259.5" stroke="black" stroke-width="10"/>
<path d="M520.5 325H455L388.333 237L324.5 325H259L356.705 195.25L292.5 110.5L324.5 65.5L388.333 150.014L455 65.5H520.5L422.5 195.25L520.5 325Z" fill="white"/>
<path d="M259 200L292.5 155.5L324.5 200H259Z" fill="white"/>
<path d="M388.333 237L455 325H520.5L422.5 195.25M388.333 237L324.5 325H259L356.705 195.25M388.333 237L356.705 195.25M422.5 195.25L520.5 65.5H455L388.333 150.014M422.5 195.25L388.333 150.014M388.333 150.014L324.5 65.5L292.5 110.5L356.705 195.25M292.5 155.5L259 200H324.5L292.5 155.5Z" stroke="black" stroke-width="10"/>
<path d="M649.5 64.5V129.5H584.5V259.5H649.5V324.5H584.5L520 259.5V129.5L584 64.5H649.5Z" fill="white" stroke="black" stroke-width="10"/>
<path d="M648.5 325.5V65H714.5L844 237.999V65H909.5V325.5H844L714.5 151.5V259.5L648.5 325.5Z" fill="white"/>
<path d="M714.5 65H648.5V325.5L714.5 259.5V151.5M714.5 65L844 237.999M714.5 65V151.5M909.5 325.5V65H844V237.999M909.5 325.5L844 237.999M909.5 325.5H844L714.5 151.5" stroke="black" stroke-width="10"/>
<path d="M1039.5 259.5V325H974.5L1039.5 259.5Z" fill="white" stroke="black" stroke-width="10"/>
<path d="M1039.5 64.5V0H1364.5L1299.5 64.5H1206L1202.5 325.5H1136.5V64.5H1039.5Z" fill="white"/>
<path d="M1136.5 64.5H1039.5V0H1364.5L1299.5 64.5H1206M1136.5 64.5V325.5H1202.5L1206 64.5M1136.5 64.5H1206" stroke="black" stroke-width="10"/>
<path d="M1300 324.5V65H1364.5L1494 236.894V65H1559.5L1560 324.5H1494L1364.5 150V324.5H1300Z" fill="white"/>
<path d="M1364.5 65H1300V324.5H1364.5V150M1364.5 65V150M1364.5 65L1494 236.894M1560 324.5H1494L1364.5 150M1560 324.5L1559.5 65H1494V236.894M1560 324.5L1494 236.894" stroke="black" stroke-width="10"/>
</g>
<defs>
<clipPath id="clip0_302_5">
<rect width="1561" height="328" fill="white"/>
</clipPath>
</defs>
</svg>
